<svg xmlns="http://www.w3.org/2000/svg" height="512" width="512"><path d="M271.064 51.312V0h-29.96v51.361a86.002 86.002 0 0115.118-1.359 85.84 85.84 0 0114.842 1.31zM171.581 121.053h-52.82c.991 4.847 1.513 9.864 1.513 15s-.521 10.153-1.513 15h52.82c-.86-4.875-1.335-9.882-1.335-15s.475-10.125 1.335-15zM340.864 121.053c.86 4.875 1.335 9.882 1.335 15s-.474 10.125-1.335 15h52.376c-.991-4.847-1.513-9.864-1.513-15s.521-10.153 1.513-15z"/><ellipse cx="45.637" cy="136.053" rx="45.636" ry="45.697"/><path d="M296.071 156.242c4.314 0 8.631.512 12.842 1.49a56.782 56.782 0 004.284-21.678c0-31.458-25.559-57.052-56.976-57.052s-56.976 25.593-56.976 57.052c0 26.972 18.796 49.617 43.957 55.531l1.988-4.078c9.763-19.286 29.259-31.265 50.881-31.265z"/><ellipse cx="466.363" cy="136.053" rx="45.636" ry="45.697"/><path d="M308.696 188.266c-13.799-6.985-30.647-1.461-37.632 12.338l-60.366 123.848c6.985-13.799 1.461-30.647-12.338-37.632-13.799-6.985-30.647-1.461-37.632 12.338l-6.927 13.685c6.985-13.799 1.461-30.647-12.338-37.632s-30.647-1.461-37.632 12.338l-8.226 16.25c6.985-13.799 1.461-30.647-12.338-37.632s-30.647-1.461-37.632 12.338L0 364.32V512h228.252l35.627-69.878c11.48-22.679 3.371-50.208-17.961-63.236l75.116-152.988c6.985-13.799 1.461-30.647-12.338-37.632z"/></svg>