<svg xmlns="http://www.w3.org/2000/svg" viewBox="-67 0 460 460.181"><path d="M301.902 202.18h-.668c-12.808 0-23.59 10.886-23.59 24.879v19.394a7.001 7.001 0 01-14 0v-35.812c0-13.993-10.16-25.375-22.964-25.375-12.875 0-23.035 11.382-23.035 25.375v37.957a7.001 7.001 0 01-14 0v-48.38c0-13.988-10.563-25.038-23.368-25.038h-.71c-12.485 0-22.922 10.48-22.922 23.984v54.477a7.001 7.001 0 01-14 0v-52.899c0-.172-.02-.351-.02-.527 0-.43.02-.86.02-1.285V75.254c0-13.992-10.56-25.371-23.36-25.371-12.805 0-23.36 11.375-23.37 25.355l-.142 205.09a7.005 7.005 0 01-4.644 6.59 6.995 6.995 0 01-7.766-2.148l-24.488-29.81a37.28 37.28 0 00-26.312-13.913 36.483 36.483 0 00-27.41 9.836c-.087.078-.176.172-.27.25L.09 255.14 84.992 418.3c13.403 25.754 38.746 41.879 66.133 41.879h98.145c41.765 0 75.777-36.746 75.82-81.758.023-23.836.047-41.715.066-56.117.051-38.5.067-52.66-.031-95.07-.031-13.954-10.45-25.055-23.223-25.055zm0 0"/><path d="M55.594 77.703c3.867 0 7-3.133 7-7A56.447 56.447 0 0190.746 21.63a56.435 56.435 0 0184.723 49.074 7.001 7.001 0 0014 0c.097-25.226-13.309-48.582-35.14-61.223A70.44 70.44 0 0048.593 70.703c0 3.867 3.136 7 7 7zm0 0"/></svg>