<svg xmlns="http://www.w3.org/2000/svg" viewBox="0 0 24 24"><path d="M8 11a1 1 0 00-1 1v5.5c0 .551-.448 1-1 1h-.5v-.75a.75.75 0 00-1.244-.564l-2 1.75a.751.751 0 000 1.128l2 1.75A.75.75 0 005.5 21.25v-.75H6c1.654 0 3-1.346 3-3V12a1 1 0 00-1-1zM21.744 18.936l-2-1.75c-.484-.421-1.244-.08-1.244.564v.75H18c-.552 0-1-.449-1-1V12a1 1 0 10-2 0v5.5c0 1.654 1.346 3 3 3h.5v.75a.75.75 0 001.244.564l2-1.75a.751.751 0 000-1.128zM13.75 20.5H13V10a1 1 0 10-2 0v10.5h-.75a.75.75 0 00-.565 1.244l1.75 2a.752.752 0 001.129 0l1.75-2a.75.75 0 00-.564-1.244z"/><path d="M3.095 15.57A2.761 2.761 0 015 15.013V12c0-1.654 1.346-3 3-3 .395 0 .77.081 1.116.22C9.462 7.945 10.617 7 12 7s2.539.945 2.884 2.22C15.23 9.081 15.605 9 16 9c1.654 0 3 1.346 3 3v3.013a2.763 2.763 0 011.602.343C22.613 14.359 24 12.306 24 9.933c0-3.066-2.307-5.625-5.327-6.006C17.361 1.528 14.789 0 12 0 8.455 0 5.38 2.465 4.603 5.829 2.019 6.101 0 8.271 0 10.9c0 2.087 1.277 3.882 3.095 4.67z"/></svg>
